<svg width="512" height="512" viewBox="0 0 512 512" fill="none" xmlns="http://www.w3.org/2000/svg">
<g clip-path="url(#clip0)">
<path d="M509.784 223.975C508.181 211.224 500.812 199.914 489.795 193.298C478.92 186.759 465.642 185.579 453.784 190.098C443.554 193.599 432.362 188.572 428.184 178.599C422.972 166.974 416.604 155.904 409.176 145.554C402.511 136.955 403.769 124.639 412.035 117.565C421.775 109.548 427.283 97.494 426.968 84.882C426.723 72.015 420.571 59.977 410.285 52.242C393.355 39.334 374.88 28.592 355.288 20.263C343.409 15.196 329.859 15.88 318.552 22.119C307.484 28.178 299.826 38.999 297.795 51.452C295.8 62.199 285.681 69.457 274.862 67.9C262.274 66.588 249.583 66.588 236.995 67.9C226.173 69.468 216.046 62.205 214.062 51.452C212.03 38.999 204.372 28.177 193.305 22.119C181.999 15.877 168.447 15.193 156.569 20.263C136.907 28.54 118.359 39.248 101.358 52.135C91.079 59.865 84.926 71.894 84.675 84.754C84.392 97.394 89.938 109.462 99.715 117.479C107.984 124.554 109.234 136.878 102.552 145.468C95.122 155.817 88.754 166.888 83.544 178.513C79.28 188.512 67.976 193.472 57.731 189.841C45.932 185.398 32.747 186.609 21.955 193.126C10.927 199.798 3.58501 211.176 2.05101 223.974C-0.683994 245.22 -0.683994 266.728 2.05101 287.974C3.65401 300.725 11.023 312.035 22.04 318.651C32.91 325.206 46.195 326.387 58.051 321.851C68.282 318.328 79.489 323.362 83.651 333.35C88.86 344.976 95.228 356.047 102.659 366.395C109.324 374.994 108.066 387.31 99.8 394.384C90.06 402.401 84.552 414.455 84.867 427.067C85.112 439.934 91.264 451.972 101.55 459.707C118.545 472.591 137.086 483.298 156.739 491.579C168.618 496.646 182.168 495.962 193.475 489.723C204.543 483.664 212.201 472.843 214.232 460.39C216.246 449.656 226.352 442.408 237.165 443.942C249.753 445.254 262.444 445.254 275.032 443.942C285.845 442.408 295.951 449.656 297.965 460.39C299.997 472.843 307.655 483.665 318.722 489.723C324.913 493.147 331.871 494.946 338.946 494.95C344.62 494.942 350.235 493.796 355.458 491.579C375.112 483.3 393.653 472.593 410.647 459.707C420.926 451.977 427.079 439.948 427.33 427.088C427.613 414.448 422.067 402.38 412.29 394.363C404.027 387.297 402.769 374.987 409.431 366.395C416.87 356.048 423.245 344.977 428.46 333.35C432.662 323.401 443.832 318.384 454.06 321.851H454.295C466.092 326.31 479.284 325.099 490.071 318.566C500.961 311.906 508.218 300.643 509.783 287.974C512.532 266.672 512.533 245.105 509.783 223.803V223.975H509.784ZM255.918 362.642C197.008 362.642 149.251 314.886 149.251 255.975C149.251 197.064 197.007 149.308 255.918 149.308C314.829 149.308 362.585 197.064 362.585 255.975C362.514 314.856 314.799 362.571 255.918 362.642Z" fill="white"/>
</g>
<defs>
<clipPath id="clip0">
<rect width="511.847" height="511.847" fill="white"/>
</clipPath>
</defs>
</svg>
